<svg xmlns="http://www.w3.org/2000/svg" viewBox="0 0 32 32">
  <circle cx="16" cy="16" r="16" fill="#8247E5"/>
  <path d="M21.092 13.089c-.487-.287-1.122-.287-1.696 0l-2.779 1.653-1.871 1.06-2.78 1.654c-.487.287-1.122.287-1.696 0l-2.166-1.285c-.487-.287-.871-.861-.871-1.435V11.97c0-.574.26-1.148.87-1.435l2.167-1.285c.487-.287 1.122-.287 1.696 0l2.166 1.285c.487.287.871.861.871 1.435v1.653l1.871-1.061v-1.653c0-.574-.26-1.148-.87-1.435L12.04 6.516c-.487-.287-1.122-.287-1.696 0L6.11 9.074c-.61.287-.87.861-.87 1.435v5.117c0 .574.26 1.148.87 1.435l4.234 2.558c.487.287 1.122.287 1.696 0l2.78-1.654 1.87-1.06 2.78-1.654c.487-.287 1.122-.287 1.696 0l2.166 1.285c.487.287.871.861.871 1.435v2.558c0 .574-.26 1.148-.87 1.435l-2.167 1.285c-.487.287-1.122.287-1.696 0l-2.166-1.285c-.487-.287-.871-.861-.871-1.435v-1.653l-1.871 1.06v1.654c0 .574.26 1.148.87 1.435l4.234 2.558c.487.287 1.122.287 1.696 0l4.234-2.558c.487-.287.871-.861.871-1.435v-5.117c0-.574-.26-1.148-.87-1.435l-4.234-2.558z" fill="#fff"/>
</svg>
